# xmcd
#
# Track frame offsets: 
#        150
#        13248
#        27978
#        40125
#        52478
#        64653
#        77695
#        90375
#        100425
#        110325
#        124875
#        137470
#        151940
#        165145
#        175948
#        187725
#
# Disc length: 2647 seconds
#
# Revision: 0
# Processed by: cddbd v1.4PL0 Copyright (c) Steve Scherf et al.
# Submitted via: ExactAudioCopy v0.90b4
#
DISCID=c60a5510
DTITLE=Red Foley - Red Foley
DYEAR=1900
DGENRE=Country
TTITLE0=Hang Your Head In Shame
TTITLE1=Old Shep
TTITLE2=Tennesee Saturday Night
TTITLE3=Tennesee Border
TTITLE4=Careless Kisses
TTITLE5=Just A Closer Walk With Thee
TTITLE6=Chattanoogie Shoeshine Boy
TTITLE7=When God Dips His Love In My Heart
TTITLE8=Don't Be Ashamed Of Your Age
TTITLE9=Peace In The ValleyTrack10
TTITLE10=Alabama Jubilee
TTITLE11=Midnight
TTITLE12=One By One
TTITLE13=Deep Blues
TTITLE14=As Far As I'm Concerned
TTITLE15=Sugarfoot Rag
EXTD=
EXTT0=
EXTT1=
EXTT2=
EXTT3=
EXTT4=
EXTT5=
EXTT6=
EXTT7=
EXTT8=
EXTT9=
EXTT10=
EXTT11=
EXTT12=
EXTT13=
EXTT14=
EXTT15=
PLAYORDER=
